<svg xmlns="http://www.w3.org/2000/svg"  viewBox="0 0 48 48" width="48px" height="48px" fill-rule="evenodd" clip-rule="evenodd" baseProfile="basic"><path fill-rule="evenodd" d="M-0.001,32.998V35H4v-2.001H-0.001z" clip-rule="evenodd"/><path fill-rule="evenodd" d="M0,22.997v2.001h4.001v-2.001H0z" clip-rule="evenodd"/><path fill-rule="evenodd" d="M4,7.998V10h4.001V7.998H4z" clip-rule="evenodd"/><path fill-rule="evenodd" d="M40.999,9.997v2.001H45V9.997H40.999z" clip-rule="evenodd"/><path fill-rule="evenodd" d="M44,18.998V21h4.001v-2.001H44z" clip-rule="evenodd"/><path fill-rule="evenodd" d="M44,31.997v2.001h4.001v-2.001H44z" clip-rule="evenodd"/><path fill-rule="evenodd" d="M13.069,41.792l-5.719,2.144	c-0.577,0.216-1.211-0.136-1.332-0.74l-0.913-4.567l-4.62-2.772c-0.557-0.335-0.652-1.105-0.193-1.565l4.293-4.293l-4.293-4.292	c-0.481-0.483-0.349-1.297,0.26-1.601l7.203-3.601L4.06,10.341C3.807,9.645,4.373,8.924,5.109,9.005l8.132,0.904l1.788-7.152	c0.164-0.659,0.925-0.965,1.5-0.605l7.549,4.717l8.515-3.784c0.605-0.269,1.303,0.116,1.396,0.772l0.889,6.225l9.22,0.921	c0.736,0.073,1.141,0.897,0.748,1.525l-4.169,6.672l6.447,0.805c0.701,0.088,1.093,0.86,0.749,1.479l-4.589,8.261l4.34,3.472	c0.5,0.4,0.5,1.161,0,1.561l-4.795,3.836l-1.901,4.755c-0.191,0.476-0.711,0.731-1.204,0.591l-5.253-1.499	c-2.363,3.249-6.165,5.536-10.471,5.536C19.401,47.998,15.379,45.392,13.069,41.792z" clip-rule="evenodd"/><path fill="#fff" fill-rule="evenodd" d="M15,37.998l-8,3l-1-5	l-5-3l5-5l-5-5l8-4l-4-11l9,1l2-8l8,5l9-4l1,7l10,1l-5,8l8,1l-5,9l5,4l-5,4l-2,5l-7-2L15,37.998z" clip-rule="evenodd"/><path fill-rule="evenodd" d="M6.019,41.196l-0.913-4.567	l-4.62-2.772c-0.557-0.335-0.652-1.105-0.193-1.565l4.293-4.293l-4.293-4.292c-0.481-0.483-0.349-1.297,0.26-1.601l7.203-3.601	L4.06,8.341C3.807,7.645,4.373,6.924,5.109,7.005l8.132,0.904l1.788-7.152c0.164-0.659,0.925-0.965,1.5-0.605l7.549,4.717	l8.515-3.784c0.605-0.269,1.303,0.116,1.396,0.772l0.889,6.225l9.22,0.921c0.736,0.073,1.141,0.897,0.748,1.525l-4.169,6.672	l6.447,0.805c0.701,0.088,1.093,0.86,0.749,1.479l-4.589,8.261l4.34,3.472c0.5,0.4,0.5,1.161,0,1.561l-4.795,3.836l-1.901,4.755	c-0.191,0.476-0.711,0.731-1.204,0.591l-6.892-1.969l-17.679-0.983l-7.803,2.927C6.773,42.152,6.14,41.8,6.019,41.196z M39.407,39.789l1.664-4.161c0.064-0.16,0.169-0.301,0.304-0.409l4.024-3.22l-4.024-3.219c-0.381-0.304-0.487-0.84-0.249-1.267	l4.281-7.705l-6.532-0.816c-0.723-0.091-1.109-0.904-0.723-1.523l4.147-6.635L33.9,9.994c-0.457-0.047-0.825-0.399-0.891-0.853	L32.196,3.45l-7.791,3.463c-0.304,0.135-0.655,0.111-0.936-0.067l-6.833-4.271l-1.667,6.665c-0.121,0.485-0.583,0.807-1.08,0.752	l-7.4-0.823l3.449,9.487c0.173,0.477-0.037,1.009-0.492,1.236l-6.759,3.38l4.019,4.019c0.391,0.391,0.391,1.024,0,1.415	l-4.095,4.095l3.901,2.34c0.243,0.145,0.411,0.385,0.467,0.661l0.769,3.848l6.899-2.588c0.129-0.048,0.268-0.069,0.407-0.061l18,1	c0.075,0.004,0.148,0.016,0.22,0.036L39.407,39.789z" clip-rule="evenodd"/><path fill="#fff" fill-rule="evenodd" d="M12.001,27.996	c2.208,0,4.001,1.793,4.001,4.001s-1.793,4.001-4.001,4.001S8,34.205,8,31.997S9.793,27.996,12.001,27.996z" clip-rule="evenodd"/><path fill-rule="evenodd" d="M7,31.997	c0-2.76,2.24-5.001,5.001-5.001c2.76,0,5.001,2.241,5.001,5.001c0,2.761-2.241,5.001-5.001,5.001C9.24,36.998,7,34.758,7,31.997z M15.003,31.997c0-1.655-1.347-3.001-3.001-3.001C10.345,28.996,9,30.342,9,31.997c0,1.656,1.345,3.001,3.001,3.001	C13.656,34.998,15.003,33.653,15.003,31.997z" clip-rule="evenodd"/><path fill="#fff" fill-rule="evenodd" d="M36.001,27.996	c-2.208,0-4.001,1.793-4.001,4.001s1.793,4.001,4.001,4.001c2.208,0,4.001-1.793,4.001-4.001S38.209,27.996,36.001,27.996z" clip-rule="evenodd"/><path fill-rule="evenodd" d="M31,31.997	c0-2.76,2.24-5.001,5.001-5.001c2.76,0,5.001,2.241,5.001,5.001c0,2.761-2.241,5.001-5.001,5.001C33.24,36.998,31,34.758,31,31.997z M39.003,31.997c0-1.655-1.347-3.001-3.001-3.001c-1.656,0-3.001,1.347-3.001,3.001c0,1.656,1.345,3.001,3.001,3.001	C37.656,34.998,39.003,33.653,39.003,31.997z" clip-rule="evenodd"/><path fill="#fff" fill-rule="evenodd" d="M12,32.998	c0-2.431,0-8.568,0-11c0-6.072,5.376-12,12-12s12,5.928,12,12c0,2.432,0,8.569,0,11c0,6.072-5.376,12-12,12S12,39.07,12,32.998z" clip-rule="evenodd"/><path fill-rule="evenodd" d="M11,32.998v-11	c0-6.593,5.793-13,13-13c7.205,0,13,6.407,13,13v11c0,6.595-5.795,13-13,13C16.793,45.998,11,39.593,11,32.998z M35,32.998v-11	c0-5.549-4.959-11-11-11c-6.043,0-11,5.451-11,11v11c0,5.551,4.957,11,11,11C30.041,43.998,35,38.549,35,32.998z" clip-rule="evenodd"/><path fill-rule="evenodd" d="M19.935,21.477	c-1.159-0.247-2.296-0.479-3.935-0.479c-0.552,0-1-0.448-1-1c0-0.551,0.448-1,1-1c1.86,0,3.167,0.271,4.352,0.523	c0.593,0.127,1.136,0.244,1.723,0.333c0.58,0.087,1.201,0.144,1.925,0.144c1.44,0,2.473-0.227,3.647-0.477	c1.188-0.253,2.491-0.523,4.353-0.523c0.551,0,1,0.449,1,1c0,0.552-0.449,1-1,1c-1.641,0-2.775,0.231-3.936,0.479	c-0.579,0.124-1.184,0.256-1.843,0.355c-0.665,0.1-1.387,0.167-2.221,0.167C22.321,21.998,21.105,21.726,19.935,21.477z" clip-rule="evenodd"/><path fill-rule="evenodd" d="M17.056,38.329	c-0.183-0.52,0.092-1.092,0.613-1.273c0.841-0.295,1.696-0.563,2.712-0.755c1.016-0.191,2.169-0.303,3.619-0.303	c1.448,0,2.601,0.112,3.617,0.303c1.016,0.192,1.871,0.46,2.712,0.755c0.521,0.181,0.796,0.753,0.613,1.273	c-0.181,0.521-0.753,0.796-1.273,0.613c-0.796-0.279-1.545-0.511-2.423-0.676c-0.876-0.165-1.904-0.268-3.247-0.268	c-1.344,0-2.372,0.103-3.248,0.268c-0.877,0.165-1.627,0.397-2.423,0.676C17.809,39.125,17.237,38.85,17.056,38.329z" clip-rule="evenodd"/><path fill-rule="evenodd" d="M14.999,24.998	c0-2.76,2.24-5.001,5.001-5.001c2.76,0,5.001,2.241,5.001,5.001C25.001,27.76,22.76,30,20,30C17.239,30,14.999,27.76,14.999,24.998z M23.001,24.998c0-1.655-1.347-3.001-3.001-3.001c-1.656,0-3.001,1.347-3.001,3.001C16.999,26.654,18.344,28,20,28	C21.655,28,23.001,26.654,23.001,24.998z" clip-rule="evenodd"/><path fill-rule="evenodd" d="M22.999,24.998	c0-2.76,2.24-5.001,5.001-5.001c2.76,0,5.001,2.241,5.001,5.001C33.001,27.76,30.76,30,28,30C25.239,30,22.999,27.76,22.999,24.998z M31.001,24.998c0-1.655-1.347-3.001-3.001-3.001c-1.656,0-3.001,1.347-3.001,3.001C24.999,26.654,26.344,28,28,28	C29.655,28,31.001,26.654,31.001,24.998z" clip-rule="evenodd"/><path fill-rule="evenodd" d="M19,24.998	c0.552,0,1.001,0.448,1.001,1c0,0.552-0.449,1-1.001,1s-1.001-0.448-1.001-1C17.999,25.446,18.448,24.998,19,24.998z" clip-rule="evenodd"/><path fill-rule="evenodd" d="M29,23.998	c0.552,0,1.001,0.448,1.001,1c0,0.552-0.449,1-1.001,1s-1.001-0.448-1.001-1C27.999,24.446,28.448,23.998,29,23.998z" clip-rule="evenodd"/><path fill-rule="evenodd" d="M23.236,34.833	c-0.873-0.392-1.4-1.369-1.712-2.288C21.189,31.553,21,30.316,21,28.998c0-0.551,0.448-1,1-1c0.551,0,1,0.449,1,1	c0,1.141,0.165,2.156,0.419,2.905c0.127,0.375,0.268,0.657,0.4,0.851c0.068,0.101,0.125,0.164,0.187,0.207	c0.051-0.043,0.108-0.105,0.177-0.207c0.132-0.193,0.273-0.476,0.4-0.851c0.253-0.749,0.42-1.764,0.42-2.905c0-0.551,0.448-1,1-1	c0.551,0,1,0.449,1,1c0,1.317-0.191,2.555-0.525,3.547c-0.311,0.917-0.84,1.896-1.712,2.288c-0.233,0.104-0.491,0.165-0.764,0.165	C23.727,34.998,23.469,34.937,23.236,34.833z" clip-rule="evenodd"/></svg>